<svg width="891" height="155" viewBox="0 0 891 155" fill="none" xmlns="http://www.w3.org/2000/svg">
<g clip-path="url(#clip0_3847_6603)">
<path fill-rule="evenodd" clip-rule="evenodd" d="M139.205 153.309C139.205 111.669 109.868 76.6543 70.1217 69.0835V153.309H139.205ZM801.65 0C813.952 0 822.47 5.6781 827.201 17.0343L890.607 154.255H861.27L850.86 132.489H755.279L745.815 154.255H716.478L777.991 17.0343C779.884 12.3025 783.669 8.51715 787.455 4.73175C792.186 1.8927 796.918 0 801.65 0ZM838.558 105.991L802.596 26.4978L767.581 105.991H838.558ZM679.571 0V141.006C679.571 144.791 678.624 147.631 675.785 150.47C672.946 153.309 670.107 154.255 666.322 154.255H645.502C640.771 154.255 636.985 152.362 634.146 147.631L567.902 34.0686V154.255H541.404V13.2489C541.404 9.4635 542.35 6.62445 545.189 3.7854C548.028 0.94635 550.867 0 554.653 0H570.741C573.58 0 575.472 0.94635 577.365 1.8927C580.204 2.83905 581.15 4.73175 583.043 6.62445L653.073 127.757V0H679.571ZM495.033 0V26.4978H401.344V60.5664H474.213V87.0642H401.344V107.884C401.344 113.562 403.237 118.294 407.022 122.079C411.754 125.865 415.539 127.757 421.217 127.757H495.033V154.255H421.217C415.539 154.255 408.915 153.309 403.237 150.47C397.559 147.631 392.827 144.791 389.042 141.006C384.31 136.274 381.471 131.543 378.632 125.865C376.739 120.186 374.846 114.508 374.846 107.884V19.8733C374.846 14.1952 376.739 9.4635 380.524 5.6781C384.31 1.8927 389.042 0 394.72 0H495.033ZM92.8341 0.94635V61.5127H145.83H161.918C161.918 30.2832 148.669 0.94635 92.8341 0.94635ZM69.1753 61.5127V0.94635H16.1797H0.0917969C0.0917969 32.1759 13.3407 61.5127 69.1753 61.5127ZM299.138 63.4054V0H325.636V154.255H299.138V89.9032H228.162V154.255H201.664V0H228.162V63.4054H299.138Z" fill="#6A00FF"/>
</g>
<defs>
<clipPath id="clip0_3847_6603">
<rect width="890.699" height="154.255" fill="white"/>
</clipPath>
</defs>
</svg>
